<svg xmlns="http://www.w3.org/2000/svg" xml:space="preserve" width="200" height="100"><path d="M36.879 77.813V62.48q0-2.539-.733-3.271-.683-.732-2.93-.732h-1.318v23.34q.245 0 .782.048.537.05.732.05 1.856 0 2.637-.587.83-.635.83-2.05zm0-37.891v-9.033q0-2.54-.733-3.272-.683-.732-2.93-.732h-1.318v16.992q.245 0 .782.098.537.048.732.048 1.856 0 2.637-.634.83-.635.83-2.002zM14.71 95V13.799h19.58q12.793 0 16.309 2.93 3.515 2.88 3.515 13.867v8.496q0 5.615-1.855 8.545-1.807 2.88-5.86 3.76 4.346 1.66 6.006 4.54 1.71 2.881 1.71 8.985v13.183q0 11.084-3.565 14.014Q47.035 95 34.389 95Zm62.257-29.2h5.224l-2.587-31.298ZM58.803 95l10.4-81.201h20.8L100.503 95H84.291l-1.318-16.016h-6.885L74.77 95Zm62.353-46.777V95h-15.478V13.799h20.898l6.006 41.113L138.49 13.8h20.899V95H143.86V48.223L137.367 95h-9.717ZM166.762 95V13.799h27.295v13.086h-10.205v16.894h10.205v13.233h-10.205V95Z" style="fill:#4a9125"/><path d="M32.879 73.813V58.48q0-2.539-.733-3.271-.683-.732-2.93-.732h-1.318v23.34q.245 0 .782.048.537.05.732.05 1.856 0 2.637-.587.83-.635.83-2.05zm0-37.891v-9.033q0-2.54-.733-3.272-.683-.732-2.93-.732h-1.318v16.992q.245 0 .782.098.537.048.732.048 1.856 0 2.637-.634.83-.635.83-2.002zM10.71 91V9.799h19.58q12.793 0 16.309 2.93 3.515 2.88 3.515 13.867v8.496q0 5.615-1.855 8.545-1.807 2.88-5.86 3.76 4.346 1.66 6.006 4.54 1.71 2.881 1.71 8.985v13.183q0 11.084-3.565 14.014Q43.035 91 30.389 91Zm62.257-29.2h5.224l-2.587-31.298ZM54.803 91l10.4-81.201h20.8L96.503 91H80.291l-1.318-16.016h-6.885L70.77 91Zm62.353-46.777V91h-15.478V9.799h20.898l6.006 41.113L134.49 9.8h20.899V91H139.86V44.223L133.367 91h-9.717ZM162.762 91V9.799h27.295v13.086h-10.205v16.894h10.205v13.233h-10.205V91Z"/><path d="M28.879 69.813V54.48q0-2.539-.733-3.271-.683-.732-2.93-.732h-1.318v23.34q.245 0 .782.048.537.05.732.05 1.856 0 2.637-.587.83-.635.83-2.05zm0-37.891v-9.033q0-2.54-.733-3.272-.683-.732-2.93-.732h-1.318v16.992q.245 0 .782.098.537.048.732.048 1.856 0 2.637-.634.83-.635.83-2.002zM6.71 87V5.799h19.58q12.793 0 16.309 2.93 3.515 2.88 3.515 13.867v8.496q0 5.615-1.855 8.545-1.807 2.88-5.86 3.76 4.346 1.66 6.006 4.54 1.71 2.881 1.71 8.985v13.183q0 11.084-3.565 14.014Q39.035 87 26.389 87Zm62.257-29.2h5.224l-2.587-31.298ZM50.803 87l10.4-81.201h20.8L92.503 87H76.291l-1.318-16.016h-6.885L66.77 87Zm62.353-46.777V87H97.678V5.799h20.898l6.006 41.113L130.49 5.8h20.899V87H135.86V40.223L129.367 87h-9.717ZM158.762 87V5.799h27.295v13.086h-10.205v16.894h10.205v13.233h-10.205V87Z" style="fill:#4a9125"/></svg>