<svg xmlns="http://www.w3.org/2000/svg" xml:space="preserve" width="200" height="100"><path d="M35.879 76.813V61.48q0-2.539-.733-3.271-.683-.732-2.93-.732h-1.318v23.34q.245 0 .782.048.537.05.732.05 1.856 0 2.637-.587.83-.635.83-2.05zm0-37.891v-9.033q0-2.54-.733-3.272-.683-.732-2.93-.732h-1.318v16.992q.245 0 .782.098.537.048.732.048 1.856 0 2.637-.634.83-.635.83-2.002zM13.71 94V12.799h19.58q12.793 0 16.309 2.93 3.515 2.88 3.515 13.867v8.496q0 5.615-1.855 8.545-1.807 2.88-5.86 3.76 4.346 1.66 6.006 4.54 1.71 2.881 1.71 8.985v13.183q0 11.084-3.565 14.014Q46.035 94 33.389 94Zm62.257-29.2h5.224l-2.587-31.298ZM57.803 94l10.4-81.201h20.8L99.503 94H83.291l-1.318-16.016h-6.885L73.77 94Zm62.353-46.777V94h-15.478V12.799h20.898l6.006 41.113L137.49 12.8h20.899V94H142.86V47.223L136.367 94h-9.717zM165.762 94V12.799h27.295v13.086h-10.205v16.894h10.205v13.233h-10.205V94Z" style="fill:#01a005"/><path d="M31.879 72.813V57.48q0-2.539-.733-3.271-.683-.732-2.93-.732h-1.318v23.34q.245 0 .782.048.537.05.732.05 1.856 0 2.637-.587.83-.635.83-2.05zm0-37.891v-9.033q0-2.54-.733-3.272-.683-.732-2.93-.732h-1.318v16.992q.245 0 .782.098.537.048.732.048 1.856 0 2.637-.634.83-.635.83-2.002zM9.71 90V8.799h19.58q12.793 0 16.309 2.93 3.515 2.88 3.515 13.867v8.496q0 5.615-1.855 8.545-1.807 2.88-5.86 3.76 4.346 1.66 6.006 4.54 1.71 2.881 1.71 8.985v13.183q0 11.084-3.565 14.014Q42.035 90 29.389 90Zm62.257-29.2h5.224l-2.587-31.298ZM53.803 90l10.4-81.201h20.8L95.503 90H79.291l-1.318-16.016h-6.885L69.77 90Zm62.353-46.777V90h-15.478V8.799h20.898l6.006 41.113L133.49 8.8h20.899V90H138.86V43.223L132.367 90h-9.717zM161.762 90V8.799h27.295v13.086h-10.205v16.894h10.205v13.233h-10.205V90Z" style=""/><path d="M27.879 68.813V53.48q0-2.539-.733-3.271-.683-.732-2.93-.732h-1.318v23.34q.245 0 .782.048.537.05.732.05 1.856 0 2.637-.587.83-.635.83-2.05zm0-37.891v-9.033q0-2.54-.733-3.272-.683-.732-2.93-.732h-1.318v16.992q.245 0 .782.098.537.048.732.048 1.856 0 2.637-.634.83-.635.83-2.002zM5.71 86V4.799h19.58q12.793 0 16.309 2.93 3.515 2.88 3.515 13.867v8.496q0 5.615-1.855 8.545-1.807 2.88-5.86 3.76 4.346 1.66 6.006 4.54 1.71 2.881 1.71 8.985v13.183q0 11.084-3.565 14.014Q38.035 86 25.389 86Zm62.257-29.2h5.224l-2.587-31.298ZM49.803 86l10.4-81.201h20.8L91.503 86H75.291l-1.318-16.016h-6.885L65.77 86Zm62.353-46.777V86H96.678V4.799h20.898l6.006 41.113L129.49 4.8h20.899V86H134.86V39.223L128.367 86h-9.717zM157.762 86V4.799h27.295v13.086h-10.205v16.894h10.205v13.233h-10.205V86Z" style="fill:#01a005"/></svg>